<svg xmlns="http://www.w3.org/2000/svg" viewBox="402 1666 40 40">
  <defs>
    <style>
      .cls-1 {
        fill: #0abab6;
      }

      .cls-2 {
        fill: #fff;
      }
    </style>
  </defs>
  <g id="Group_55" data-name="Group 55" transform="translate(324 1549.75)">
    <circle id="ellipse" class="cls-1" cx="20" cy="20" r="20" transform="translate(78 116.25)"/>
    <g id="certificate-icons---free-download--png-and-svg" transform="translate(80.787 123.25)">
      <path id="Path_614" data-name="Path 614" class="cls-2" d="M10.08,0A.522.522,0,0,0,9.56.521V2.489a2.93,2.93,0,0,0,1.188,2.1c.014.01.018.024.033.033l2.994,1.741a1.549,1.549,0,0,1,1.253-.635h3.644a1.555,1.555,0,0,1,1.253.635l2.994-1.741c.014-.008.018-.022.033-.033a2.93,2.93,0,0,0,1.188-2.1V.521A.52.52,0,0,0,23.617,0Zm4.946,6.768a.522.522,0,0,0-.521.521V7.81a1.5,1.5,0,0,0,1.432,1.562h1.822A1.5,1.5,0,0,0,19.191,7.81V7.289a.52.52,0,0,0-.521-.521Zm.862,3.644-2.034,4.035L8.616,15.2a.721.721,0,0,0-.586.472.713.713,0,0,0,.179.732l3.807,3.628-.895,5.141a.7.7,0,0,0,1.025.748l4.7-2.424,4.7,2.424a.683.683,0,0,0,.325.081.7.7,0,0,0,.7-.83l-.895-5.141L25.488,16.4a.7.7,0,0,0-.407-1.2l-5.239-.748-2.034-4.035Z"/>
    </g>
  </g>
</svg>
