<?xml version="1.0" encoding="UTF-8" standalone="no"?>
<!-- Created with Inkscape (http://www.inkscape.org/) -->

<svg
   xmlns:dc="http://purl.org/dc/elements/1.1/"
   xmlns:cc="http://creativecommons.org/ns#"
   xmlns:rdf="http://www.w3.org/1999/02/22-rdf-syntax-ns#"
   xmlns:svg="http://www.w3.org/2000/svg"
   xmlns="http://www.w3.org/2000/svg"
   xmlns:sodipodi="http://sodipodi.sourceforge.net/DTD/sodipodi-0.dtd"
   xmlns:inkscape="http://www.inkscape.org/namespaces/inkscape"
   width="210mm"
   height="297mm"
   viewBox="0 0 210 297"
   version="1.1"
   id="svg8"
   inkscape:version="0.92.2 (5c3e80d, 2017-08-06)"
   sodipodi:docname="Book-store.svg">
  <defs
     id="defs2" />
  <sodipodi:namedview
     id="base"
     pagecolor="#ffffff"
     bordercolor="#666666"
     borderopacity="1.0"
     inkscape:pageopacity="0.0"
     inkscape:pageshadow="2"
     inkscape:zoom="0.7"
     inkscape:cx="347.3505"
     inkscape:cy="796.78042"
     inkscape:document-units="mm"
     inkscape:current-layer="layer1"
     showgrid="false"
     inkscape:window-width="1151"
     inkscape:window-height="696"
     inkscape:window-x="206"
     inkscape:window-y="0"
     inkscape:window-maximized="0" />
  <metadata
     id="metadata5">
    <rdf:RDF>
      <cc:Work
         rdf:about="">
        <dc:format>image/svg+xml</dc:format>
        <dc:type
           rdf:resource="http://purl.org/dc/dcmitype/StillImage" />
        <dc:title></dc:title>
      </cc:Work>
    </rdf:RDF>
  </metadata>
  <g
     inkscape:label="Capa 1"
     inkscape:groupmode="layer"
     id="layer1">
    <path
       style="fill:#000000;stroke:#000000;stroke-width:0.48309833px;stroke-linecap:butt;stroke-linejoin:miter;stroke-opacity:1"
       d="m 149.33503,46.937926 c -19.00719,6.51479 -38.18605,13.68501 -57.845919,17.79533 5.537297,-0.518131 9.426729,-0.188954 12.713319,8.078154 -0.41308,7.13663 -2.23297,14.921023 -4.322567,22.829583 1.148027,5.266287 0.763167,11.362937 4.513257,15.219697 l 7.53348,7.55001 c 0.99305,-4.82997 0.87078,-10.18279 4.86209,-13.40373 3.61541,-0.71665 5.81647,0.0212 9.40793,1.17074 -2.5644,-5.3542 -7.20172,-11.757234 -4.57682,-16.09777 l 7.56447,-18.497792 c 1.60849,-6.07817 0.99675,-10.760535 -3.49619,-13.405069 z"
       id="path49"
       inkscape:connector-curvature="0"
       sodipodi:nodetypes="cccccccccccc" />
    <path
       style="fill:#ff0000;stroke:#ff0000;stroke-width:0.48309833px;stroke-linecap:butt;stroke-linejoin:miter;stroke-opacity:1"
       d="m 104.61131,64.25842 c 0.53938,-0.248351 16.90071,-5.132616 16.90071,-5.132616 2.00988,2.997295 4.09934,5.848163 5.20765,9.398948 1.04177,-0.599588 -5.67004,14.130812 -8.17429,21.893507 -1.51519,4.696808 0.85177,9.605251 6.74231,14.983961 2.85997,2.61146 -9.30288,-5.521589 -11.50684,-3.39414 -2.78469,4.80683 -3.77626,10.12247 -2.24745,16.47406 -3.87066,-4.86547 -8.84459,-8.34797 -8.89983,-20.033803 0.38618,-3.733362 2.47596,-12.696024 4.22515,-20.613295 0.56517,-5.295743 -0.17561,-9.826177 -2.24741,-13.576622 z"
       id="path45-1"
       inkscape:connector-curvature="0"
       sodipodi:nodetypes="cccssccccc" />
    <path
       style="fill:#ff8080;stroke:#ff8080;stroke-width:0.48309833px;stroke-linecap:butt;stroke-linejoin:miter;stroke-opacity:1"
       d="m 113.99174,62.274696 -0.63565,2.634178 5.84816,0.40976 -0.44499,6.907414 2.47913,0.234141 -3.68689,8.663532 -1.7163,15.044095 c 0,0 -5.46677,5.092754 -5.59391,4.858594 -0.12711,-0.23414 2.98766,-9.600118 2.98766,-9.600118 l -2.66983,-0.878058 7.24664,-13.756269 -3.81402,-2.985417 c 0,0 2.86051,-4.565898 2.47912,-4.565898 -0.3814,0 -6.48385,-1.34636 -6.48385,-1.34636 l -2.54267,2.575639 -1.01707,-4.390297 z"
       id="path66"
       inkscape:connector-curvature="0" />
    <path
       style="fill:#c83737;stroke:#c83737;stroke-width:0.48309833px;stroke-linecap:butt;stroke-linejoin:miter;stroke-opacity:1"
       d="m 130.39203,24.810792 c -1.14419,0.117047 -41.191307,-6.673248 -41.826974,-6.556174 -0.635677,0.117047 -77.678805,13.580666 -77.678805,13.580666 20.56647,6.946427 46.477845,13.892863 70.0508,20.839298 L 147.54141,38.655117 157.6099,33.688059 c 2.44826,0.43891 5.0658,1.019506 8.63015,6.167423 0.52452,3.118201 0.95597,6.462442 0.58435,9.437415 -0.36273,1.900077 -0.69609,5.261226 -4.00044,7.243636 -5.79979,3.595798 -21.88077,8.144614 -32.81332,12.177277 l -1.52562,5.853736 26.8253,-11.12211 4.8311,-0.468282 c 4.56932,-2.414966 7.75975,-6.235741 8.97535,-12.069957 0.95638,-6.389651 -0.54661,-12.989716 -1.43835,-14.735608 -0.97813,-1.899314 -5.05297,-4.46381 -6.65241,-4.96706 -4.52836,0.42216 -7.62338,1.754602 -11.14727,2.814665 2.15016,-2.19402 5.93442,-4.147842 8.98973,-6.208827 0.11592,-0.162424 -0.63801,-0.694638 -1.53622,-0.508611 l -15.99642,5.66964 -62.941452,14.55189 -24.536802,-7.72694 z"
       id="path68"
       inkscape:connector-curvature="0"
       sodipodi:nodetypes="ccccccccccccccccccccccc" />
    <path
       style="fill:#f4d7d7;stroke:#f4d7d7;stroke-width:0.48309833px;stroke-linecap:butt;stroke-linejoin:miter;stroke-opacity:1"
       d="M 85.259584,80.655422 C 85.96325,76.178446 90.277237,73.23594 97.210078,71.406528 L 86.881467,71.64067 C 87.852419,67.375406 86.174789,63.660601 83.352582,60.050277 L 158.74294,37.103644 c 3.35851,6.047743 4.60681,14.588222 -3.30548,19.551475 l -24.91829,9.717194 c -0.0299,-3.657896 -1.08931,-6.712522 -4.83109,-8.195234 l 23.64695,-11.239153 c -19.24785,6.246359 -38.37998,13.558381 -57.845919,17.79533 6.702171,-0.964827 12.068589,2.392257 12.443629,9.733838 z"
       id="path70"
       inkscape:connector-curvature="0"
       sodipodi:nodetypes="cccccccccccc" />
    <path
       style="fill:#aa8800;stroke:none;stroke-width:0.48309833px;stroke-linecap:butt;stroke-linejoin:miter;stroke-opacity:1"
       d="M 129.00062,27.310762 70.766383,39.796346 c 1.163606,1.552688 2.918654,2.984354 6.229535,4.097624 28.398042,-3.68683 53.202932,-9.274766 74.246132,-14.312372 -22.28268,4.622046 -44.28991,7.849086 -66.236738,10.770866 L 130.90763,27.896136 c 0.25523,-0.404305 0.62942,-0.727702 -1.90701,-0.585374 z"
       id="path72"
       inkscape:connector-curvature="0"
       sodipodi:nodetypes="ccccccc" />
    <path
       style="fill:#000000;stroke:#000000;stroke-width:0.48309833px;stroke-linecap:butt;stroke-linejoin:miter;stroke-opacity:1"
       d="m 150.15546,29.518099 c -7.06244,-1.444855 -9.63645,-1.022555 -19.76343,-4.707307 l -76.534454,14.985554 24.536802,7.72694 C 102.03256,41.8427 129.04887,36.473187 148.17067,30.376687 124.80788,35.835407 101.19439,40.634521 76.995918,43.89397 73.339821,43.130011 72.016506,41.477112 70.766383,39.796346 L 129.00062,27.310762 Z"
       id="path74"
       inkscape:connector-curvature="0"
       sodipodi:nodetypes="ccccccccc" />
    <path
       style="fill:#ffeeaa;stroke:#ffeeaa;stroke-width:0.48309833px;stroke-linecap:butt;stroke-linejoin:miter;stroke-opacity:1"
       d="m 85.005312,40.352464 45.902318,-12.456328 19.24783,1.621963 c -21.58095,5.112125 -43.41812,7.393071 -65.150148,10.834365 z"
       id="path76"
       inkscape:connector-curvature="0"
       sodipodi:nodetypes="cccc" />
    <path
       style="fill:#e9afaf;stroke:#e9afaf;stroke-width:0.48309833px;stroke-linecap:butt;stroke-linejoin:miter;stroke-opacity:1"
       d="M 72.768727,20.479026 6.5636971,31.015752 3.8303136,33.152372 76.614507,57.708779 76.995918,55.60144 10.886251,31.835266 Z"
       id="path78"
       inkscape:connector-curvature="0"
       sodipodi:nodetypes="ccccccc" />
    <path
       style="fill:#ffffff;stroke:#ffffff;stroke-width:0.48309833px;stroke-linecap:butt;stroke-linejoin:miter;stroke-opacity:1"
       d="M 83.22544,70.118709 22.514506,49.816302 c -0.542038,4.687726 -3.043652,7.076095 -5.652949,9.648614 l 60.993446,24.014496 c 0.936866,0.616252 3.910841,-1.955059 3.590577,-2.70691 C 80.983222,79.687074 40.604545,63.094216 41.525574,63.094216 L 81.44558,77.494405 c 2.822626,-2.063763 3.364409,-4.531451 1.77986,-7.375696 z"
       id="path80"
       inkscape:connector-curvature="0"
       sodipodi:nodetypes="ccccsccc" />
    <path
       style="fill:#f4d7d7;stroke:#f4d7d7;stroke-width:0.48309833px;stroke-linecap:butt;stroke-linejoin:miter;stroke-opacity:1"
       d="m 23.663066,43.125472 56.994843,18.295327 2.427216,3.973651 C 74.515473,63.73689 66.424027,60.317797 58.093764,57.778288 66.474151,61.89283 83.382289,68.924245 83.22544,70.118709 L 22.514506,49.816302 Z"
       id="path82"
       inkscape:connector-curvature="0"
       sodipodi:nodetypes="ccccccc" />
    <path
       style="fill:#000000;stroke:#000000;stroke-width:0.48309833px;stroke-linecap:butt;stroke-linejoin:miter;stroke-opacity:1"
       d="m 103.93274,74.467094 c 0,0 1.267,2.268801 -0.0815,2.599942 -1.55531,-0.367323 -25.279946,8.876665 -25.260982,8.940707 L 23.30344,62.165852 77.854968,83.479412 c 1.809904,0.683359 2.802173,-1.268615 3.971977,-2.64837 C 71.164901,75.054418 58.860147,70.487959 47.373705,65.318634 l 34.071841,12.175771 c 4.602799,-3.689328 2.798081,-5.411806 1.779859,-7.375696 1.415041,-1.030445 -14.643662,-7.525856 -21.994081,-11.297711 7.287923,2.205407 15.043917,6.422469 21.853766,6.573452 L 80.657909,61.420799 23.663066,43.125472 c -1.14856,6.69083 -2.387572,11.727376 -6.801509,16.339444 2.745054,-5.754107 1.673422,-13.859473 -0.50854,-17.795365 C 11.363956,39.369876 9.4311076,37.810845 1.3511981,34.762144 0.68501743,32.048819 1.3820181,30.256073 3.2582129,29.259643 L 85.768113,15.444819 130.39203,24.810792 88.613786,17.917648 6.5636971,31.015752 C 5.227192,31.401519 4.1552166,31.990297 3.8303136,33.152372 28.091734,41.337838 76.690641,57.734186 76.614507,57.708779 77.198275,57.328631 77.31143,56.643695 76.995918,55.60144 L 25.281216,36.833864 80.937051,52.674582 147.54141,38.6551 157.6099,33.688059 c 7.07755,2.443475 10.13863,7.005983 9.07964,13.742188 -0.29568,4.028599 -0.60434,8.052257 -6.11302,10.09969 l -30.56588,11.183873 -1.52562,5.853736 2.03415,-8.195233 24.91829,-9.717194 c 2.74803,-1.233748 4.48127,-3.707866 5.87367,-7.048234 0.60887,-3.120193 0.56246,-5.97637 -0.46492,-8.385461 l -2.10327,-4.11778 -75.390358,22.946633 c 2.445168,3.644369 3.793621,7.47811 3.528885,11.590393 l 10.328611,-0.234142 c -6.689504,1.743556 -11.986096,4.176569 -11.950506,9.248894 l 18.673168,-6.188328"
       id="path84"
       inkscape:connector-curvature="0"
       sodipodi:nodetypes="cccccccccccccccccccccccccccccccccccccccccc" />
    <path
       style="fill:#ffaaaa;stroke:#ffaaaa;stroke-width:0.48309833px;stroke-linecap:butt;stroke-linejoin:miter;stroke-opacity:1"
       d="M 17.729835,55.04641 6.0431804,59.185622 6.8522558,61.834729 8.1108182,59.765113 80.298322,91.140357 99.176626,84.683197 C 94.182243,83.060768 86.967158,83.89236 78.590283,86.007743 L 16.861557,59.464916 Z"
       id="path86"
       inkscape:connector-curvature="0"
       sodipodi:nodetypes="ccccccccc" />
    <path
       style="fill:#d35f5f;stroke:#d35f5f;stroke-width:0.48309833px;stroke-linecap:butt;stroke-linejoin:miter;stroke-opacity:1"
       d="m 99.176616,84.683197 3.245924,-1.217977 1.42872,-6.398184 -25.260977,8.940707 c 7.286159,-1.287557 15.205653,-3.838824 20.586333,-1.324546 z"
       id="path88"
       inkscape:connector-curvature="0"
       sodipodi:nodetypes="ccccc" />
    <path
       style="fill:#d35f5f;stroke:#d35f5f;stroke-width:0.48309833px;stroke-linecap:butt;stroke-linejoin:miter;stroke-opacity:1"
       d="m 77.250178,92.597032 c 0,0 2.415543,4.682995 1.907002,4.214701 C 78.648647,96.343428 6.8522558,61.834729 6.8522558,61.834729 l 1.2585624,-2.069616 z"
       id="path90"
       inkscape:connector-curvature="0" />
    <path
       style="fill:#000000;stroke:#000000;stroke-width:0.48309833px;stroke-linecap:butt;stroke-linejoin:miter;stroke-opacity:1"
       d="m 102.42254,83.46522 -1.1442,5.970791 L 80.17425,99.387366 1.8597378,62.157617 C 0.51111843,60.173016 1.0110031,58.301886 3.2582129,56.538039 L 18.260034,52.089203 17.729835,55.04641 6.0431804,59.185622 6.8522558,61.834729 79.665721,96.928804 77.250178,92.597032 23.726799,66.840612 80.298322,91.140357 Z"
       id="path92"
       inkscape:connector-curvature="0"
       sodipodi:nodetypes="cccccccccccccc" />
    <path
       style="fill:#ffb380;stroke:#ffb380;stroke-width:0.48309833px;stroke-linecap:butt;stroke-linejoin:miter;stroke-opacity:1"
       d="m 161.63986,71.476159 -19.6721,4.763034 -15.38974,14.034866 51.42315,-13.499704 c -5.07847,-2.802877 -10.60651,-4.363787 -16.36131,-5.298196 z"
       id="path94"
       inkscape:connector-curvature="0"
       sodipodi:nodetypes="ccccc" />
    <path
       style="fill:#c87137;stroke:#c87137;stroke-width:0.48309833px;stroke-linecap:butt;stroke-linejoin:miter;stroke-opacity:1"
       d="m 190.01794,78.079783 c -4.25185,1.44576 -69.29142,17.026449 -68.90667,16.975823 -0.23431,-1.751528 -0.21127,-3.443794 0.50853,-4.975666 l 4.73479,-9.361807 c 8.19599,-5.08212 12.06215,-5.890672 28.38816,-10.199721 l 6.89711,0.957747 -19.6721,4.763034 -15.38974,14.034866 51.42315,-13.499704 -6.67195,-3.260487 c 5.82482,1.521977 10.65641,3.043938 18.68872,4.565915 z"
       id="path96"
       inkscape:connector-curvature="0"
       sodipodi:nodetypes="ccccccccccc" />
    <path
       style="fill:#c87137;stroke:#c87137;stroke-width:0.48309833px;stroke-linecap:butt;stroke-linejoin:miter;stroke-opacity:1"
       d="m 172.62278,93.789464 c -0.88584,3.162105 4.34958,8.544676 8.80993,9.023506 l -79.19959,22.18618 c -6.990923,-1.29634 -5.573389,-2.04667 -6.023086,-3.80808 -5.55551,-6.71273 0.492177,-20.37693 3.595859,-21.192791 -0.18567,-8.466193 0.0477,-5.663485 1.472447,-10.562268 l -21.10409,9.951355 c 0,0 0.804159,7.445114 2.011913,6.985314 -0.03407,-0.6937 7.866964,-5.33868 8.719991,-4.55313 -6.786271,12.93315 -4.162491,14.63323 -5.124112,20.61329 -5.397249,-0.41076 -8.894954,-2.57077 -9.978554,-6.95387 1.36637,12.42756 10.428332,11.60608 16.810704,15.39788 -7.866718,-9.99361 0.539357,-27.89832 0.539357,-27.89832 0,0 -7.655649,20.73616 6.023067,27.4016 l 95.021524,-27.48439 z"
       id="path98"
       inkscape:connector-curvature="0"
       sodipodi:nodetypes="cccccccccccccccc" />
    <path
       style="fill:#f4d7d7;stroke:#f4d3d7;stroke-width:0.48309833px;stroke-linecap:butt;stroke-linejoin:miter;stroke-opacity:1"
       d="m 145.45742,104.53865 c 2.4064,-0.81671 23.26164,-4.701297 24.34619,-5.034202 l 4.70397,2.692722 -72.27447,22.80198 c -2.984104,-1.0296 -6.490383,-1.93094 -6.023076,-3.80808 0.217337,0.60039 11.455396,-2.42806 12.696356,-3.83273 0.86719,-0.98163 1.67697,2.17697 3.02021,1.05236 0.78328,2.42726 -0.0577,-1.77074 1.04806,-2.86701 1.7799,-0.35123 23.74589,-7.36983 23.74589,-7.36983 l -23.4916,4.67711 c -0.31017,-3.76327 1.97449,-5.53527 3.55974,-7.844 3.13597,-0.70944 6.27196,0.3954 9.40793,1.17074 l -3.30548,-6.55618 46.14967,-9.365978 c -0.41168,0.03279 0.34731,5.907121 0,6.087876 -1.14634,0.596629 -23.68958,8.146322 -23.58339,8.195222 z"
       id="path100"
       inkscape:connector-curvature="0"
       sodipodi:nodetypes="cccccsccccccccsc" />
    <path
       style="fill:none;stroke:none;stroke-width:0.48309833px;stroke-linecap:butt;stroke-linejoin:miter;stroke-opacity:1"
       d="m 80.17425,99.387366 c -5.149062,3.500494 -4.544784,10.489264 -4.370762,16.091604 0.845319,1.1736 -0.210356,1.66268 2.696906,4.30477 2.427216,1.6448 4.854432,1.90911 7.281648,2.6491 -1.149328,-10.96422 2.080757,-15.65501 5.124112,-20.61329 -3.349879,1.10956 -6.441985,2.45651 -8.719991,4.55313 -2.181866,-0.84401 -1.425052,-4.57457 -2.011913,-6.985314"
       id="path104"
       inkscape:connector-curvature="0"
       sodipodi:nodetypes="ccccccc" />
    <path
       style="fill:#ffb380;stroke:#ffb380;stroke-width:0.48385909;stroke-linecap:butt;stroke-linejoin:miter;stroke-miterlimit:4;stroke-dasharray:none;stroke-opacity:1"
       d="m 80.17425,99.387366 c -3.674002,2.516324 -4.297941,7.297024 -4.370762,16.091604 0.306222,4.37101 5.074056,5.70889 9.978554,6.95387 -0.812972,-7.07297 0.431593,-13.98118 5.124112,-20.61329 -3.258514,0.95067 -6.139313,2.51009 -8.719991,4.55313 -1.937081,-0.0671 -1.806114,-4.33583 -2.011913,-6.985314"
       id="path4600"
       inkscape:connector-curvature="0"
       sodipodi:nodetypes="cccccc" />
    <path
       style="fill:#ffeeaa;stroke:#ffeeaa;stroke-width:0.48309833px;stroke-linecap:butt;stroke-linejoin:miter;stroke-opacity:1"
       d="m 72.482678,117.41689 c 0.04337,-5.06816 1.459817,-11.50922 4.449674,-14.04898 1.054858,-1.32447 0.640892,-2.51369 3.241898,-3.980544 l -2.415543,-0.878058 c -2.503257,1.329272 -4.909265,1.590762 -7.246592,1.697602 -4.670054,10.45802 -1.296934,13.75691 1.970563,17.20998 z"
       id="path4653"
       inkscape:connector-curvature="0"
       sodipodi:nodetypes="cccccc" />
    <path
       style="fill:#d3bc5f;stroke:#d3bc5f;stroke-width:0.48309833px;stroke-linecap:butt;stroke-linejoin:miter;stroke-opacity:1"
       d="m 52.77694,118.2364 c 0.381404,-0.0585 7.628046,-1.46343 8.136581,-1.52197 2.283308,2.11736 5.947881,0.13947 13.031195,5.20983 1.400751,2.51657 2.452935,4.33779 7.183027,6.08787 H 58.752241 Z"
       id="path4657"
       inkscape:connector-curvature="0"
       sodipodi:nodetypes="cccccc" />
    <path
       style="fill:#ffeeaa;stroke:#ffeeaa;stroke-width:0.48309833px;stroke-linecap:butt;stroke-linejoin:miter;stroke-opacity:1"
       d="m 58.879377,119.99252 7.37377,-0.0585 c 2.932164,2.61895 5.382576,5.77752 10.806336,7.96109 l -18.307242,0.11701 z"
       id="path4655-7"
       inkscape:connector-curvature="0"
       sodipodi:nodetypes="ccccc" />
    <path
       style="fill:#d3bc5f;stroke:#d3bc5f;stroke-width:0.48309833px;stroke-linecap:butt;stroke-linejoin:miter;stroke-opacity:1"
       d="m 72.482666,117.41689 c 0,0 -5.748534,-2.51949 -5.784555,-2.75126 -2.103615,-13.5361 4.299558,-20.149457 4.449663,-19.20026 l 6.610933,3.043938 -7.246592,1.697602 c -4.507101,8.0263 -2.641957,13.22721 1.970551,17.20998"
       id="path4674"
       inkscape:connector-curvature="0"
       sodipodi:nodetypes="cscccc" />
    <path
       style="fill:#c87137;stroke:#c87137;stroke-width:0.48309833px;stroke-linecap:butt;stroke-linejoin:miter;stroke-opacity:1"
       d="m 28.787217,74.99742 42.360557,20.46795 c -4.573956,4.168392 -9.736227,7.64915 -8.28945,18.8546 C 52.305706,107.42991 41.892086,100.28372 31.124549,93.789464 l -0.179806,-10.26525 c -3.424336,2.101487 -3.930398,4.778839 -4.045381,7.533374 -1.957616,-2.946047 -4.734851,-4.759933 -3.04544,-12.743664 z"
       id="path4676"
       inkscape:connector-curvature="0"
       sodipodi:nodetypes="cccccccc" />
    <path
       style="fill:#ffb380;stroke:#ffb380;stroke-width:0.48309833px;stroke-linecap:butt;stroke-linejoin:miter;stroke-opacity:1"
       d="m 67.333771,98.919072 -6.610952,5.736658 C 49.822407,100.8233 42.918285,96.131368 31.863373,86.392078 l 0.381401,-4.565915 c -4.051534,0.493075 -5.649006,3.472025 -7.373777,6.322038 -1.855503,-3.2781 -0.881129,-6.55618 -1.017075,-9.834277 l 8.136587,0.585379 c 11.50547,8.107784 32.834412,12.932979 35.343262,20.019769 z"
       id="path4651-9"
       inkscape:connector-curvature="0"
       sodipodi:nodetypes="cccccccc" />
    <path
       style="fill:#a0892c;stroke:#a0892c;stroke-width:0.48309833px;stroke-linecap:butt;stroke-linejoin:miter;stroke-opacity:1"
       d="m 132.93474,124.92848 c -1.24,-0.52903 15.28974,-5.47078 20.46859,-4.44884 1.58987,1.42441 2.01288,2.82733 -4.76755,4.09759 z"
       id="path4693"
       inkscape:connector-curvature="0"
       sodipodi:nodetypes="cccc" />
    <path
       style="fill:#f4d7d7;stroke:#f4d7d7;stroke-width:0.48309833px;stroke-linecap:butt;stroke-linejoin:miter;stroke-opacity:1"
       d="M 60.161403,145.28129 160.66642,135.18162 c 8.39656,2.22282 11.82255,6.51281 5.39384,14.90117 -14.79761,6.28751 -74.208582,5.10532 -112.551265,7.4506 l 3.955488,-3.80809 38.835448,-4.13921 -38.47586,1.32454 z"
       id="path4695"
       inkscape:connector-curvature="0"
       sodipodi:nodetypes="cccccccc" />
    <path
       style="fill:#ffffff;stroke:#ffffff;stroke-width:0.48309833px;stroke-linecap:butt;stroke-linejoin:miter;stroke-opacity:1"
       d="m 51.696301,146.68554 2.288411,-0.4683 c 3.985274,3.8383 -2.419464,9.70614 -9.407923,15.68801 0,0 -26.571026,-53.26898 -26.443891,-52.2153 0.12714,1.05368 9.026518,9.48305 9.026518,9.48305 l -7.628043,-13.46358 1.65274,-3.27811 z"
       id="path4697"
       inkscape:connector-curvature="0"
       sodipodi:nodetypes="cccccccc" />
    <path
       style="fill:#3771c8;stroke:#3771c8;stroke-width:0.48309833px;stroke-linecap:butt;stroke-linejoin:miter;stroke-opacity:1"
       d="m 44.576789,161.90525 23.774052,5.73665 69.923509,-5.61957 9.28079,-4.21467 c 5.62209,1.99402 13.50131,1.17775 21.35854,0.81951 5.87943,-4.10918 20.1914,-27.94844 -5.9753,-38.04926 l -5.33965,0.11701 4.0683,3.74639 c -21.23642,1.70979 -40.86732,2.00433 -58.22742,9.36599 -3.26311,0.58505 -7.797503,0.0185 -11.314835,-0.58537 l -6.865191,-4.21469 -28.986456,1.40489 -11.950608,-15.68801 14.556857,-4e-5 C 46.925829,109.41909 31.124549,93.789393 24.1082,93.650666 21.33546,89.088468 20.530315,85.532884 20.802714,82.52858 l -5.593903,1.873198 41.572852,56.312932 114.293297,-11.1221 c 8.162,11.64389 0.6899,17.31826 -4.4497,23.88323 l -13.73048,-0.11701 -34.83474,2.3415 z"
       id="path4699"
       inkscape:connector-curvature="0"
       sodipodi:nodetypes="ccccccccccccccccccccccc" />
    <path
       style="fill:#3771c8;stroke:#3771c8;stroke-width:0.48309833px;stroke-linecap:butt;stroke-linejoin:miter;stroke-opacity:1"
       d="m 52.077701,143.99282 2.465117,-2.31264 C 44.304182,124.85107 31.304753,109.17757 18.514298,93.416572 Z"
       id="path4701"
       inkscape:connector-curvature="0"
       sodipodi:nodetypes="cccc" />
    <path
       style="fill:#afc6e9;stroke:#afc6e9;stroke-width:0.48309833px;stroke-linecap:butt;stroke-linejoin:miter;stroke-opacity:1"
       d="m 68.350841,167.6419 -25.871765,1.99029 -34.9076415,-62.59723 10.6977845,-2.48353 -3.865585,4.63592 30.173155,52.7179 z"
       id="path4703"
       inkscape:connector-curvature="0" />
    <path
       style="fill:#afc6e9;stroke:#afc6e9;stroke-width:0.48309833px;stroke-linecap:butt;stroke-linejoin:miter;stroke-opacity:1"
       d="m 21.033564,81.909916 -9.978605,1.531509 c 0,0 25.258113,31.868125 25.258113,31.399805 0,-0.46828 -21.104261,-30.439429 -21.104261,-30.439429 z"
       id="path4707"
       inkscape:connector-curvature="0" />
    <path
       style="fill:#000000;stroke:#000000;stroke-width:0.48309833px;stroke-linecap:butt;stroke-linejoin:miter;stroke-opacity:1"
       d="m 149.87874,34.019194 c 0,0 5.25433,-5.952818 8.98973,-6.208827 12.98602,2.889978 13.03035,10.396449 12.71502,25.332515 -5.68593,15.566828 -15.03903,14.508699 -15.83006,12.767018 l 35.59941,10.121084 1.20778,4.507359 -18.81585,6.087894 -1.77987,4.331761 0.65788,2.831466 c 8.13616,1.784967 16.20605,3.783469 24.00613,6.651586 l 0.25428,5.38545 -29.24085,9.24888 c 22.35399,12.71805 15.14724,38.81595 2.41554,46.71281 -8.34256,0.81118 -18.96672,2.1936 -24.09191,1.05368 L 39.491429,175.01763 5.038087,109.45581 l 0.5085357,-3.45371 2.0248118,1.03286 34.9076415,62.59723 95.795274,-7.60986 9.28079,-4.21467 21.35854,0.81951 c 14.83107,-10.9956 11.34108,-34.91173 -5.9753,-38.04926 l -5.33965,0.11701 -0.4383,-6.91307 37.03771,-10.88614 c -6.09215,-3.903388 -13.84817,-6.493446 -21.57536,-9.10627 0.1951,3.19925 1.04196,7.30547 8.80993,9.0235 -17.16874,4.4888 -37.24786,10.12619 -55.87177,15.18929 l 48.94664,-15.80508 -4.70397,-2.692725 -24.34619,5.034205 23.58339,-8.078143 v -6.204959 c -15.95297,2.807202 -31.01666,6.105735 -46.14967,9.365979 l -1.77987,-4.565925 68.90667,-16.975822 c -11.97615,-3.061303 -32.72533,-8.797835 -35.27519,-7.561372 -19.06611,3.29462 -23.08288,6.75424 -28.38816,10.199721 l 2.13043,-6.150587 26.8253,-11.12211 c 5.0477,0.81302 7.43069,-2.167998 10.55215,-4.097616 6.95267,-14.850669 3.50491,-26.652599 -4.83646,-28.14329 -4.7199,-0.679979 -7.68678,1.465092 -11.14727,2.814665"
       id="path4709"
       inkscape:connector-curvature="0"
       sodipodi:nodetypes="cccccccccccccccccccccccccccccccccccccccccccc" />
    <path
       style="fill:#000000;stroke:#000000;stroke-width:0.48309833px;stroke-linecap:butt;stroke-linejoin:miter;stroke-opacity:1"
       d="m 171.07496,129.59264 c 7.27894,12.22386 0.45788,17.58809 -4.4497,23.88322 l -13.73048,-0.11701 c 17.33692,0.0289 23.47787,-14.5533 7.77164,-18.17719 l -100.505017,10.09967 -2.337332,5.62934 34.173577,-1.06408 -34.533165,3.87875 -3.955488,3.80808 67.983665,-2.41847 -76.915871,6.79034 c 11.061639,-8.87861 13.19521,-13.64641 9.407923,-15.68801 l -2.288411,0.46829 -30.512188,-44.25422 1.77988,-1.75612 29.113708,43.31763 2.465114,-2.31264 -18.563811,-26.78072 -6.742299,-11.17588 27.544958,36.99115 z"
       id="path4711"
       inkscape:connector-curvature="0"
       sodipodi:nodetypes="ccccccccccccccccccccc" />
    <path
       style="fill:#000000;stroke:#000000;stroke-width:0.48309833px;stroke-linecap:butt;stroke-linejoin:miter;stroke-opacity:1"
       d="m 161.66703,124.44134 -4.0683,-3.7464 -0.4383,-6.91307 -57.983814,16.59826 c -9.002429,-4.58063 -9.205059,-13.14875 -7.641188,-22.51733 -2.120505,7.72844 -3.484109,15.43947 1.078764,23.01405 -7.354608,-1.86959 -22.68209,-6.39589 -15.68184,-27.50894 -2.886481,3.62572 -4.197832,8.4382 -4.449686,14.04898 l -6.118356,-2.51743 c -1.246949,-6.83607 -0.378701,-12.33302 2.209015,-16.741375 -2.954326,3.075955 -6.735775,4.388035 -5.339607,16.741685 L 31.124549,93.789464 30.944743,83.524214 c -2.468711,2.402526 -3.853949,4.910099 -4.045381,7.533374 -1.928238,-3.163651 -5.369497,-4.530664 -3.04544,-12.743664 1.323888,-1.27417 2.77968,-2.478936 4.933296,-3.316504 l -6.292817,-2.938843 c -0.794675,2.23458 -2.289562,3.74375 -1.303514,7.823126 l -0.157317,2.028213 c -0.410154,4.102382 0.978943,7.96805 3.074635,11.740773 2.961496,-1.669713 22.519922,14.764461 34.771177,21.073411 l -14.556856,5e-5 11.950608,15.688 28.98645,-1.40489 c 8.939069,6.53383 16.730926,5.75372 24.120366,2.40768 10.3563,-5.1319 32.66567,-5.51929 52.28708,-6.9736 z"
       id="path4713"
       inkscape:connector-curvature="0"
       sodipodi:nodetypes="cccccccccccccccccccccccccc" />
    <path
       style="fill:#a0892c;stroke:#a0892c;stroke-width:0.48309833px;stroke-linecap:butt;stroke-linejoin:miter;stroke-opacity:1"
       d="m 132.93474,124.92848 c -1.24,-0.52903 15.28974,-5.47078 20.46859,-4.44884 1.58987,1.42441 2.01288,2.82733 -4.76755,4.09759 z"
       id="path4693-8"
       inkscape:connector-curvature="0"
       sodipodi:nodetypes="cccc" />
    <path
       style="fill:#d3bc5f;stroke:#d3bc5f;stroke-width:0.48309833px;stroke-linecap:butt;stroke-linejoin:miter;stroke-opacity:1"
       d="m 52.77694,118.2364 c 0.381404,-0.0585 7.628046,-1.46343 8.136581,-1.52197 2.283308,2.11736 5.947881,0.13947 13.031195,5.20983 1.400751,2.51657 2.452935,4.33779 7.183027,6.08787 H 58.752241 Z"
       id="path4657-7"
       inkscape:connector-curvature="0"
       sodipodi:nodetypes="cccccc" />
    <path
       style="fill:#ffeeaa;stroke:#ffeeaa;stroke-width:0.48309833px;stroke-linecap:butt;stroke-linejoin:miter;stroke-opacity:1"
       d="m 58.879377,119.99252 7.37377,-0.0585 c 2.932164,2.61895 5.382576,5.77752 10.806336,7.96109 l -18.307242,0.11701 z"
       id="path4655-7-4"
       inkscape:connector-curvature="0"
       sodipodi:nodetypes="ccccc" />
    <path
       style="fill:#000000;stroke:#000000;stroke-width:0.48309833px;stroke-linecap:butt;stroke-linejoin:miter;stroke-opacity:1"
       d="m 113.22895,112.85097 -0.74752,2.71076 24.23912,-7.38787 z"
       id="path4766"
       inkscape:connector-curvature="0" />
    <path
       style="fill:#000000;stroke:#000000;stroke-width:0.48309833px;stroke-linecap:butt;stroke-linejoin:miter;stroke-opacity:1"
       d="m 96.210034,121.19107 c -5.857947,-14.31359 3.388309,-19.63591 3.595849,-21.192791 l 0.13755,-2.074347 c 0.426137,5.414008 0.300497,10.597048 11.589967,20.558208 0,0 -1.89599,-1.67989 -2.24562,-1.62135 0.34322,1.01554 -12.790839,4.72659 -13.077746,4.33028 z"
       id="path4783"
       inkscape:connector-curvature="0"
       sodipodi:nodetypes="cccccc" />
    <path
       style="fill:#f4d7d7;stroke:#f4d7d7;stroke-width:0.48309833px;stroke-linecap:butt;stroke-linejoin:miter;stroke-opacity:1"
       d="m 100.15635,106.94455 -2.733375,2.34148 c 0,0 -0.953484,7.96107 -0.508497,7.90254 0.27256,0.70287 7.609872,-1.4529 7.691542,-1.99027 -1.75918,-2.53077 -2.95319,-5.35896 -4.13184,-8.19521"
       id="path102-2-9"
       inkscape:connector-curvature="0"
       sodipodi:nodetypes="ccccc" />
    <path
       style="fill:#000000;stroke:#000000;stroke-width:0.48309833px;stroke-linecap:butt;stroke-linejoin:miter;stroke-opacity:1"
       d="m 40.063531,153.59295 -25.659897,-44.4056 3.865585,-4.63592 -10.6977845,2.48353 -2.0248118,-1.03286 12.0034193,-3.85141 c 0,0 0.269695,-3.890869 0.179786,-4.801506 -0.0899,-0.910625 -8.6301454,-11.341441 -8.6301454,-11.341441 l -0.3595907,-4.967056 12.4507841,-1.158984 -0.157315,2.028213 -9.978605,1.531509 11.909033,17.233765 -1.77988,1.75612 -1.65274,3.27811 c 0,0 7.628043,13.46358 7.628043,13.46358 l -9.069989,-9.32337 z"
       id="path4800"
       inkscape:connector-curvature="0" />
    <path
       style="fill:#ac9393;stroke:#ac9393;stroke-width:0.48309833px;stroke-linecap:butt;stroke-linejoin:miter;stroke-opacity:1"
       d="m 170.75711,114.25587 14.17546,4.09761 0.25428,8.19522 23.39268,8.54645 v 3.39517 l -53.6506,41.44444 -9.91648,1.4049 -21.73992,-6.32203 -79.20276,2.13563 -4.578341,-2.13563 106.474541,-12.17576 c 5.70786,1.35025 14.71112,0.28655 24.09191,-1.05368 8.36364,-4.49718 23.50917,-33.7129 -2.41554,-46.71281 z"
       id="path4802"
       inkscape:connector-curvature="0"
       sodipodi:nodetypes="cccccccccccccc" />
  </g>
</svg>
