<svg xmlns="http://www.w3.org/2000/svg" viewBox="3646 25 33.991 34">
  <defs>
    <style>
      .cls-1 {
        fill: rgba(0,0,0,0.54);
      }
    </style>
  </defs>
  <g id="carrito-icons" transform="translate(3644 23)">
    <path id="Path_2" data-name="Path 2" class="cls-1" d="M2,2V5.4H5.878l4.463,13.281-2.55,3.4H7.737a3.539,3.539,0,0,0-.266,3.612A3.434,3.434,0,0,0,10.5,27.5H32.6V24.1H10.5c.007-.007-.02-.027,0-.053L13.05,20.7H29.041a1.5,1.5,0,0,0,1.541-1.009l5.259-11.9A1.689,1.689,0,0,0,34.3,5.4H9.438L8.694,3.169,8.322,2Zm8.5,27.2a3.4,3.4,0,1,0,3.4,3.4A3.4,3.4,0,0,0,10.5,29.2Zm18.7,0a3.4,3.4,0,1,0,3.4,3.4A3.4,3.4,0,0,0,29.2,29.2Z"/>
  </g>
</svg>
