<svg xmlns="http://www.w3.org/2000/svg" viewBox="2411 825 15 14.537">
  <defs>
    <style>
      .cls-1 {
        fill: #fff;
      }
    </style>
  </defs>
  <g id="shopper-icons---download-for-free-in-png-and-svg" transform="translate(2406.851 820.984)">
    <path id="Path_6" data-name="Path 6" class="cls-1" d="M12.553,4.016a.5.5,0,0,0-.356.143L10.706,5.65l-.831-.831a.538.538,0,0,0-.762,0L7.229,6.7H5.687a.811.811,0,0,0-.806.75l-.73,10.233a.807.807,0,0,0,.806.866H18.341a.807.807,0,0,0,.806-.866L18.416,7.454a.81.81,0,0,0-.8-.75H15.454L12.908,4.159A.5.5,0,0,0,12.553,4.016Zm0,.549L14.692,6.7H10.414ZM9.494,5.2l.831.831L9.652,6.7H7.99ZM5.687,7.243H17.61a.271.271,0,0,1,.269.25l.73,10.233a.268.268,0,0,1-.268.288H4.957a.27.27,0,0,1-.2-.085.278.278,0,0,1-.072-.2L5.359,8.32h9.252a.269.269,0,0,0,0-.539H5.4l.02-.288A.271.271,0,0,1,5.687,7.243Zm10,.539a.269.269,0,1,0,0,.539h1.077a.269.269,0,1,0,0-.539Zm-7,1.077a.805.805,0,0,0-.258,1.569,3.227,3.227,0,0,0,6.44,0,.807.807,0,1,0-.539-.007,2.69,2.69,0,0,1-5.363,0,.806.806,0,0,0-.281-1.562Zm0,.539a.269.269,0,1,1-.269.269A.27.27,0,0,1,8.687,9.4Zm5.924,0a.269.269,0,1,1-.269.269A.27.27,0,0,1,14.611,9.4Z" transform="translate(0)"/>
  </g>
</svg>
